<?xml version="1.0" ?><!DOCTYPE svg  PUBLIC '-//W3C//DTD SVG 1.1//EN'  'http://www.w3.org/Graphics/SVG/1.1/DTD/svg11.dtd'><svg viewBox="0 0 550 550" xmlns="http://www.w3.org/2000/svg" xmlns:xlink="http://www.w3.org/1999/xlink"><style>:root>svg{display:none}:root>svg:target{display:block}</style><svg viewBox="0 0 550 550" id="facebook" xmlns="http://www.w3.org/2000/svg"><circle cx="275" cy="275" fill="#3F65A6" r="256"/><path d="M236.1 190.8v40.4h-29.6v49.4h29.6V416h60.8V280.5h40.8s3.8-23.7 5.7-49.6h-46.2v-33.8c0-5 6.6-11.8 13.2-11.8h33.1v-51.4h-45c-63.9.1-62.4 49.5-62.4 56.9z" fill="#FFF"/></svg><svg viewBox="0 0 20 20" id="film" xmlns="http://www.w3.org/2000/svg"><path d="M0 4c0-1.1.9-2 2-2h16a2 2 0 012 2v12a2 2 0 01-2 2H2a2 2 0 01-2-2V4zm6 0v12h8V4H6zM2 5v2h2V5H2zm0 4v2h2V9H2zm0 4v2h2v-2H2zm14-8v2h2V5h-2zm0 4v2h2V9h-2zm0 4v2h2v-2h-2zM8 7l5 3-5 3V7z" fill="#c70000"/></svg><svg viewBox="0 0 96 96" id="info" xmlns="http://www.w3.org/2000/svg"><path d="M48 9C26.46 9 9 26.46 9 48s17.46 39 39 39 39-17.46 39-39S69.54 9 48 9zm6.117 53.349c-2.943 4.419-5.937 7.824-10.974 7.824-3.438-.561-4.851-3.024-4.107-5.535l6.48-21.462c.159-.525-.105-1.086-.585-1.257-.477-.168-1.413.453-2.223 1.341l-3.918 4.713c-.105-.792-.012-2.1-.012-2.628 2.943-4.419 7.779-7.905 11.058-7.905 3.117.318 4.593 2.811 4.05 5.55l-6.525 21.567c-.087.486.171.981.612 1.137.48.168 1.488-.453 2.301-1.341l3.915-4.71c.105.792-.072 2.178-.072 2.706zm-.873-28.032c-2.478 0-4.488-1.806-4.488-4.464s2.01-4.461 4.488-4.461 4.488 1.806 4.488 4.461c0 2.661-2.01 4.464-4.488 4.464z" fill="#c70000"/></svg><svg viewBox="0 0 64 64" id="instagram" xmlns="http://www.w3.org/2000/svg"><defs><radialGradient cx="-578.95" cy="-837.6" gradientTransform="matrix(.75 0 0 .75 499.5 629.5)" gradientUnits="userSpaceOnUse" id="dradial-gradient" r="197.06"><stop offset="0" stop-color="#f9ed32"/><stop offset=".36" stop-color="#ee2a7b"/><stop offset=".44" stop-color="#d22a8a"/><stop offset=".6" stop-color="#8b2ab2"/><stop offset=".83" stop-color="#1b2af0"/><stop offset=".88" stop-color="#002aff"/></radialGradient><style>.dcls-1{fill:url(#dradial-gradient)}.dcls-2{fill:#fff}</style></defs><g data-name="3-instagram" id="d_3-instagram"><rect class="dcls-1" height="64" rx="11.2" ry="11.2" transform="rotate(180 32 32)" width="64"/><path class="dcls-2" d="M44 56H20A12 12 0 018 44V20A12 12 0 0120 8h24a12 12 0 0112 12v24a12 12 0 01-12 12zM20 12.8a7.21 7.21 0 00-7.2 7.2v24a7.21 7.21 0 007.2 7.2h24a7.21 7.21 0 007.2-7.2V20a7.21 7.21 0 00-7.2-7.2z"/><path class="dcls-2" d="M32 45.6A13.6 13.6 0 1145.6 32 13.61 13.61 0 0132 45.6zm0-22.4a8.8 8.8 0 108.8 8.8 8.81 8.81 0 00-8.8-8.8z"/><circle class="dcls-2" cx="45.6" cy="19.2" r="2.4"/></g></svg><svg viewBox="0 0 512 512" id="left-arrow" xmlns="http://www.w3.org/2000/svg"><path d="M353 450a15 15 0 01-10.61-4.39L157.5 260.71a15 15 0 010-21.21L342.39 54.6a15 15 0 1121.22 21.21L189.32 250.1l174.29 174.29A15 15 0 01353 450z" fill="#fff" data-name="1"/></svg><svg viewBox="0 0 512 512" id="right-arrow" xmlns="http://www.w3.org/2000/svg"><path d="M202.1 450a15 15 0 01-10.6-25.61L365.79 250.1 191.5 75.81a15 15 0 0121.21-21.21l184.9 184.9a15 15 0 010 21.21l-184.9 184.9A15 15 0 01202.1 450z" fill="#fff" data-name="1"/></svg><svg viewBox="0 0 76.014 76.014" id="search" xmlns="http://www.w3.org/2000/svg"><path d="M75.401 65.707l-18.9-18.9c3.2-5 4.7-10.8 4.7-16.5 0-16.9-13.5-30.3-30.4-30.3-17.6 0-30.9 13.9-30.8 30.6s13.6 30.6 30.8 30.6c5.8 0 11.3-1.6 16.1-4.6l18.9 18.8c.8.8 2 .8 2.8 0l6.9-6.9c.7-.8.7-2-.1-2.8zm-44.6-8.5c-15 0-26.7-12.1-26.8-26.7-.1-14.4 11.4-26.6 26.8-26.6 15 0 26.3 11.7 26.4 26.3.1 15.6-12.2 27-26.4 27zm36.3 14l-17-17c.6-.5 3.4-3.3 4.1-4.1l17 17-4.1 4.1z"/></svg><svg viewBox="0 0 426.667 426.667" id="star" xmlns="http://www.w3.org/2000/svg"><path fill="#fac917" d="M213.333 10.441l65.916 133.576 147.418 21.419L320 269.41l25.173 146.816-131.84-69.316-131.848 69.316 25.182-146.816L0 165.436l147.409-21.419z"/></svg><svg fill="none" viewBox="0 0 48 48" id="telegram" xmlns="http://www.w3.org/2000/svg"><path d="M24 48c13.255 0 24-10.745 24-24S37.255 0 24 0 0 10.745 0 24s10.745 24 24 24z" fill="url(#ipaint0_linear)"/><path d="M8.938 25.174c2.806-1.545 5.938-2.835 8.864-4.132 5.034-2.123 10.088-4.21 15.193-6.152.994-.331 2.778-.655 2.953.817-.095 2.084-.49 4.155-.76 6.226-.686 4.556-1.48 9.095-2.253 13.636-.267 1.512-2.161 2.295-3.373 1.327-2.913-1.968-5.849-3.916-8.725-5.93-.942-.957-.069-2.332.773-3.015 2.4-2.365 4.944-4.374 7.218-6.86.613-1.482-1.2-.234-1.797.149-3.285 2.263-6.49 4.665-9.952 6.655-1.77.973-3.831.141-5.6-.402-1.585-.657-3.908-1.318-2.54-2.319z" fill="#fff"/><defs><linearGradient id="ipaint0_linear" x1="18.003" y1="2.002" x2="6.003" y2="30" gradientUnits="userSpaceOnUse"><stop stop-color="#37AEE2"/><stop offset="1" stop-color="#1E96C8"/></linearGradient></defs></svg><svg viewBox="0 0 64 64" id="youtube" xmlns="http://www.w3.org/2000/svg"><path d="M62.603 16.596a8.06 8.06 0 00-5.669-5.669C51.964 9.57 31.96 9.57 31.96 9.57s-20.005.04-24.976 1.397a8.06 8.06 0 00-5.669 5.669C0 21.607 0 32 0 32s0 10.393 1.356 15.404a8.06 8.06 0 005.669 5.669C11.995 54.43 32 54.43 32 54.43s20.005 0 24.976-1.356a8.06 8.06 0 005.669-5.669C64 42.434 64 32 64 32s-.04-10.393-1.397-15.404z" fill="red"/><path d="M25.592 41.612L42.187 32l-16.596-9.612z" fill="#fff"/></svg></svg>